<?xml version="1.0" encoding="UTF-8" standalone="no"?>
<!-- Created with Inkscape (http://www.inkscape.org/) -->

<svg
   xmlns:dc="http://purl.org/dc/elements/1.1/"
   xmlns:cc="http://creativecommons.org/ns#"
   xmlns:rdf="http://www.w3.org/1999/02/22-rdf-syntax-ns#"
   xmlns:svg="http://www.w3.org/2000/svg"
   xmlns="http://www.w3.org/2000/svg"
   xmlns:sodipodi="http://sodipodi.sourceforge.net/DTD/sodipodi-0.dtd"
   xmlns:inkscape="http://www.inkscape.org/namespaces/inkscape"
   width="350mm"
   height="150mm"
   viewBox="0 0 350 150"
   version="1.1"
   id="svg8"
   inkscape:version="0.92.4 (5da689c313, 2019-01-14)"
   sodipodi:docname="circulo_referencia_f.svg"
   inkscape:export-filename="E:\Users\USER\Documents\GitHub\optics-I\Práctica 1\Figuras\circulo_referencia.png"
   inkscape:export-xdpi="96"
   inkscape:export-ydpi="96">
  <defs
     id="defs2">
    <marker
       inkscape:stockid="TriangleOutM"
       orient="auto"
       refY="0"
       refX="0"
       id="marker3421"
       style="overflow:visible"
       inkscape:isstock="true">
      <path
         id="path3419"
         d="M 5.77,0 -2.88,5 V -5 Z"
         style="fill:#800080;fill-opacity:1;fill-rule:evenodd;stroke:#800080;stroke-width:1.00000003pt;stroke-opacity:1"
         transform="scale(0.4)"
         inkscape:connector-curvature="0" />
    </marker>
    <marker
       inkscape:stockid="TriangleOutM"
       orient="auto"
       refY="0"
       refX="0"
       id="marker3387"
       style="overflow:visible"
       inkscape:isstock="true">
      <path
         id="path3385"
         d="M 5.77,0 -2.88,5 V -5 Z"
         style="fill:#000000;fill-opacity:1;fill-rule:evenodd;stroke:#000000;stroke-width:1.00000003pt;stroke-opacity:1"
         transform="scale(0.4)"
         inkscape:connector-curvature="0" />
    </marker>
    <marker
       inkscape:stockid="TriangleOutM"
       orient="auto"
       refY="0"
       refX="0"
       id="marker3341"
       style="overflow:visible"
       inkscape:isstock="true">
      <path
         id="path3339"
         d="M 5.77,0 -2.88,5 V -5 Z"
         style="fill:#000000;fill-opacity:1;fill-rule:evenodd;stroke:#000000;stroke-width:1.00000003pt;stroke-opacity:1"
         transform="scale(0.4)"
         inkscape:connector-curvature="0" />
    </marker>
    <marker
       inkscape:stockid="TriangleOutM"
       orient="auto"
       refY="0"
       refX="0"
       id="TriangleOutM"
       style="overflow:visible"
       inkscape:isstock="true">
      <path
         id="path2806"
         d="M 5.77,0 -2.88,5 V -5 Z"
         style="fill:#800080;fill-opacity:1;fill-rule:evenodd;stroke:#800080;stroke-width:1.00000003pt;stroke-opacity:1"
         transform="scale(0.4)"
         inkscape:connector-curvature="0" />
    </marker>
  </defs>
  <sodipodi:namedview
     id="base"
     pagecolor="#ffffff"
     bordercolor="#666666"
     borderopacity="1.0"
     inkscape:pageopacity="0.0"
     inkscape:pageshadow="2"
     inkscape:zoom="1"
     inkscape:cx="832.06226"
     inkscape:cy="460.26126"
     inkscape:document-units="mm"
     inkscape:current-layer="layer1"
     showgrid="true"
     inkscape:snap-grids="false"
     inkscape:snap-global="false"
     inkscape:object-paths="false"
     inkscape:window-width="1920"
     inkscape:window-height="1057"
     inkscape:window-x="1912"
     inkscape:window-y="-8"
     inkscape:window-maximized="1"
     showguides="false">
    <inkscape:grid
       type="xygrid"
       id="grid980"
       dotted="true"
       visible="false" />
  </sodipodi:namedview>
  <metadata
     id="metadata5">
    <rdf:RDF>
      <cc:Work
         rdf:about="">
        <dc:format>image/svg+xml</dc:format>
        <dc:type
           rdf:resource="http://purl.org/dc/dcmitype/StillImage" />
        <dc:title />
      </cc:Work>
    </rdf:RDF>
  </metadata>
  <g
     inkscape:label="レイヤー 1"
     inkscape:groupmode="layer"
     id="layer1"
     transform="translate(0,-147)">
    <path
       style="fill:#4d4d4d;fill-opacity:0.22488038;stroke:#ffff00;stroke-width:0.26458332;stroke-opacity:0.00956936"
       d="m 82.673757,168.914 50.648813,17.95387 v 81.83185 L 82.673757,250.74584 Z"
       id="rect982"
       inkscape:connector-curvature="0"
       sodipodi:nodetypes="ccccc" />
    <path
       style="fill:#ffff00;fill-opacity:0.22488038;stroke:#ffff00;stroke-width:0.26458332;stroke-opacity:0.00956936"
       d="m 25.658821,261.59954 -0.0133,-53.7368 26.980206,-9.57139 0.0133,53.73679 z"
       id="rect982-0"
       inkscape:connector-curvature="0"
       sodipodi:nodetypes="ccccc" />
    <ellipse
       style="fill:#666666;fill-opacity:0.22488038;stroke:#ffff00;stroke-width:0.26458332;stroke-opacity:0.00956936"
       id="path1000"
       cx="51.585217"
       cy="224.00404"
       rx="9.7328863"
       ry="49.609375" />
    <path
       style="fill:#ffff00;fill-opacity:0.22488038;stroke:#ffff00;stroke-width:0.1889881;stroke-opacity:0.00956936"
       d="m 60.185041,247.43135 c 0.304839,-1.93893 0.820983,-9.41791 0.955365,-13.84338 0.05681,-1.87098 0.145825,-4.7625 0.197805,-6.42559 0.169365,-5.41879 -0.501576,-22.5901 -0.962893,-24.64317 l -0.101719,-0.45268 7.333785,0.12375 c 4.03358,0.0681 9.055936,0.17746 11.160793,0.24311 l 3.827,0.11935 v 19.42446 19.42446 l -0.61421,0.19434 c -1.59145,0.50353 -21.661246,6.44956 -21.769383,6.44956 -0.06771,0 -0.07966,-0.2764 -0.02654,-0.61421 z"
       id="path1018"
       inkscape:connector-curvature="0" />
    <path
       style="fill:#ffff00;fill-opacity:0.22488038;stroke:#ffff00;stroke-width:0.1889881;stroke-opacity:0.00956936"
       d="m 82.784167,221.84353 v -19.39846 l 4.11049,0.11999 c 2.26077,0.066 7.3654,0.17578 11.34362,0.24395 6.937093,0.11888 7.211343,0.13719 6.701023,0.44754 -3.59082,2.1837 -5.420723,13.99272 -3.61995,23.36078 0.67991,3.53705 1.649,5.89017 2.97548,7.22497 0.44905,0.45187 0.78923,0.84186 0.75595,0.86666 -0.12241,0.0912 -21.888663,6.53303 -22.074393,6.53303 -0.12905,0 -0.19222,-6.37479 -0.19222,-19.39846 z"
       id="path1020"
       inkscape:connector-curvature="0" />
    <ellipse
       style="fill:#ffff00;fill-opacity:0.22488038;stroke:#800080;stroke-width:0.259;stroke-miterlimit:4;stroke-dasharray:0.518, 1.03599999;stroke-dashoffset:0;stroke-opacity:1"
       id="path1016"
       cx="105.70665"
       cy="218.80688"
       rx="5.0820751"
       ry="15.783526" />
    <path
       style="fill:#000000;stroke:#000000;stroke-width:0.34299999;stroke-linecap:butt;stroke-linejoin:miter;stroke-miterlimit:4;stroke-dasharray:0, 0.343, 0.686, 1.029, 1.372, 1.715, 2.058, 2.401, 2.744, 3.087, 3.43, 3.773, 4.116, 4.459, 4.802;stroke-dashoffset:0;stroke-opacity:1"
       d="M 59.391643,274.59693 106.95727,261.6034 87.750797,266.85004"
       id="path1049"
       inkscape:connector-curvature="0" />
    <text
       xml:space="preserve"
       style="font-style:normal;font-variant:normal;font-weight:normal;font-stretch:normal;font-size:8.46666622px;line-height:1.25;font-family:'Times New Roman';-inkscape-font-specification:'Times New Roman, Normal';font-variant-ligatures:normal;font-variant-caps:normal;font-variant-numeric:proportional-nums diagonal-fractions;font-feature-settings:normal;text-align:start;letter-spacing:0px;word-spacing:0px;writing-mode:lr-tb;text-anchor:start;fill:#000000;fill-opacity:1;stroke:none;stroke-width:0.26458332"
       x="85.211975"
       y="275.67548"
       id="text1053"><tspan
         sodipodi:role="line"
         id="tspan1051"
         x="85.211975"
         y="275.67548"
         style="font-style:normal;font-variant:normal;font-weight:normal;font-stretch:normal;font-size:8.46666622px;font-family:'Times New Roman';-inkscape-font-specification:'Times New Roman, Normal';font-variant-ligatures:normal;font-variant-caps:normal;font-variant-numeric:proportional-nums diagonal-fractions;font-feature-settings:normal;text-align:start;writing-mode:lr-tb;text-anchor:start;stroke-width:0.26458332">b</tspan></text>
    <text
       xml:space="preserve"
       style="font-style:normal;font-weight:normal;font-size:10.58333302px;line-height:1.25;font-family:sans-serif;letter-spacing:0px;word-spacing:0px;fill:#000000;fill-opacity:1;stroke:none;stroke-width:0.26458332"
       x="106.64054"
       y="233.18939"
       id="text1057"><tspan
         sodipodi:role="line"
         id="tspan1055"
         x="106.64054"
         y="242.84489"
         style="stroke-width:0.26458332" /></text>
    <text
       id="text1061"
       y="277.61319"
       x="89.555122"
       style="font-style:normal;font-variant:normal;font-weight:normal;font-stretch:normal;font-size:8.46666622px;line-height:1.25;font-family:'Times New Roman';-inkscape-font-specification:'Times New Roman, Normal';font-variant-ligatures:normal;font-variant-caps:normal;font-variant-numeric:proportional-nums diagonal-fractions;font-feature-settings:normal;text-align:start;letter-spacing:0px;word-spacing:0px;writing-mode:lr-tb;text-anchor:start;fill:#000000;fill-opacity:1;stroke:none;stroke-width:0.26458332"
       xml:space="preserve"><tspan
         style="font-style:normal;font-variant:normal;font-weight:normal;font-stretch:normal;font-size:6.3499999px;font-family:'Times New Roman';-inkscape-font-specification:'Times New Roman, Normal';font-variant-ligatures:normal;font-variant-caps:normal;font-variant-numeric:proportional-nums diagonal-fractions;font-feature-settings:normal;text-align:start;writing-mode:lr-tb;text-anchor:start;stroke-width:0.26458332"
         y="277.61319"
         x="89.555122"
         id="tspan1059"
         sodipodi:role="line">i</tspan></text>
    <ellipse
       style="fill:#000000;fill-opacity:0;stroke:#000000;stroke-width:0.30000001;stroke-miterlimit:4;stroke-dasharray:0.6, 0.3;stroke-dashoffset:0;stroke-opacity:1"
       id="path1063"
       cx="104.78809"
       cy="219.44292"
       rx="1.2695302"
       ry="8.3521729" />
    <text
       xml:space="preserve"
       style="font-style:normal;font-variant:normal;font-weight:normal;font-stretch:normal;font-size:3.17499995px;line-height:1.25;font-family:'Times New Roman';-inkscape-font-specification:'Times New Roman, Normal';font-variant-ligatures:normal;font-variant-caps:normal;font-variant-numeric:normal;font-feature-settings:normal;text-align:start;letter-spacing:0px;word-spacing:0px;writing-mode:lr-tb;text-anchor:start;fill:#000000;fill-opacity:1;stroke:none;stroke-width:0.21714932"
       x="110.27249"
       y="177.92064"
       id="text1069"
       transform="matrix(0.99357306,0.37477243,-0.0151396,1.0007579,0,0)"><tspan
         sodipodi:role="line"
         id="tspan1067"
         x="110.27249"
         y="177.92064"
         style="font-style:normal;font-variant:normal;font-weight:normal;font-stretch:normal;font-size:3.17499995px;font-family:'Times New Roman';-inkscape-font-specification:'Times New Roman, Normal';font-variant-ligatures:normal;font-variant-caps:normal;font-variant-numeric:normal;font-feature-settings:normal;text-align:start;writing-mode:lr-tb;text-anchor:start;stroke-width:0.21714932">Círculo mínimo</tspan></text>
    <text
       xml:space="preserve"
       style="font-style:normal;font-variant:normal;font-weight:normal;font-stretch:normal;font-size:3.17499995px;line-height:1.25;font-family:'Times New Roman';-inkscape-font-specification:'Times New Roman, Normal';font-variant-ligatures:normal;font-variant-caps:normal;font-variant-numeric:normal;font-feature-settings:normal;text-align:start;letter-spacing:0px;word-spacing:0px;writing-mode:lr-tb;text-anchor:start;fill:#800080;fill-opacity:1;stroke:none;stroke-width:0.21714932"
       x="87.503334"
       y="200.32753"
       id="text2537"
       transform="matrix(0.99357306,0.37477243,-0.0151396,1.0007579,0,0)"><tspan
         sodipodi:role="line"
         id="tspan2535"
         x="87.503334"
         y="200.32753"
         style="font-style:normal;font-variant:normal;font-weight:normal;font-stretch:normal;font-size:3.17499995px;font-family:'Times New Roman';-inkscape-font-specification:'Times New Roman, Normal';font-variant-ligatures:normal;font-variant-caps:normal;font-variant-numeric:normal;font-feature-settings:normal;text-align:start;writing-mode:lr-tb;text-anchor:start;fill:#800080;fill-opacity:1;stroke-width:0.21714932">Círculo de referencia</tspan></text>
    <path
       style="fill:none;stroke:#000000;stroke-width:0.26458332px;stroke-linecap:butt;stroke-linejoin:miter;stroke-opacity:1;marker-end:url(#marker3341)"
       d="m 114.42375,223.53157 c -0.0945,6.42559 -7.18154,0.94494 -7.18154,0.94494"
       id="path2561"
       inkscape:connector-curvature="0" />
    <path
       style="fill:none;stroke:#800080;stroke-width:0.2;stroke-linecap:butt;stroke-linejoin:miter;stroke-miterlimit:4;stroke-dasharray:none;stroke-opacity:1;marker-end:url(#TriangleOutM)"
       d="m 96.091907,233.83142 c 0.85045,-4.7247 3.68526,-8.03199 3.68526,-8.03199"
       id="path2563"
       inkscape:connector-curvature="0"
       sodipodi:nodetypes="cc" />
    <path
       sodipodi:nodetypes="ccccc"
       inkscape:connector-curvature="0"
       id="path2613"
       d="m 273.06225,164.46863 50.64881,17.95387 v 81.83184 l -50.64881,-17.95386 z"
       style="fill:#4d4d4d;fill-opacity:0.22488038;stroke:#ffff00;stroke-width:0.26458332;stroke-opacity:0.07177034" />
    <path
       sodipodi:nodetypes="ccccc"
       inkscape:connector-curvature="0"
       id="path2615"
       d="m 181.46622,273.05636 -0.0133,-53.73679 26.98021,-9.57139 0.0133,53.73679 z"
       style="fill:#ffff00;fill-opacity:0.22352941;stroke:#ffff00;stroke-width:0.26458332;stroke-opacity:0.00956936" />
    <ellipse
       ry="49.609375"
       rx="9.7328863"
       cy="235.46086"
       cx="207.39259"
       id="ellipse2617"
       style="fill:#666666;fill-opacity:0.22488038;stroke:#ffff00;stroke-width:0.26458332;stroke-opacity:0.00956936" />
    <ellipse
       ry="15.783526"
       rx="5.0820751"
       cy="214.36151"
       cx="296.09515"
       id="ellipse2625"
       style="fill:#ffff00;fill-opacity:0.22488038;stroke:#800080;stroke-width:0.259;stroke-miterlimit:4;stroke-dasharray:0.518, 1.03599999;stroke-dashoffset:0;stroke-opacity:1" />
    <path
       inkscape:connector-curvature="0"
       id="path2627"
       d="m 215.24935,285.87577 84.63982,-28.21039 -34.17662,11.39105"
       style="fill:#000000;stroke:#000000;stroke-width:0.67417991;stroke-linecap:butt;stroke-linejoin:miter;stroke-miterlimit:4;stroke-dasharray:0, 0.67417992, 1.34835983, 2.02253976, 2.69671968, 3.37089959, 4.0450795, 4.71925943, 5.39343934, 6.06761926, 6.74179918, 7.4159791, 8.09015902, 8.76433893, 9.43851886;stroke-dashoffset:0;stroke-opacity:1" />
    <text
       id="text2631"
       y="279.53473"
       x="260.17529"
       style="font-style:normal;font-variant:normal;font-weight:normal;font-stretch:normal;font-size:8.46666622px;line-height:1.25;font-family:'Times New Roman';-inkscape-font-specification:'Times New Roman, Normal';font-variant-ligatures:normal;font-variant-caps:normal;font-variant-numeric:proportional-nums diagonal-fractions;font-feature-settings:normal;text-align:start;letter-spacing:0px;word-spacing:0px;writing-mode:lr-tb;text-anchor:start;fill:#000000;fill-opacity:1;stroke:none;stroke-width:0.26458332"
       xml:space="preserve"><tspan
         style="font-style:normal;font-variant:normal;font-weight:normal;font-stretch:normal;font-size:8.46666622px;font-family:'Times New Roman';-inkscape-font-specification:'Times New Roman, Normal';font-variant-ligatures:normal;font-variant-caps:normal;font-variant-numeric:proportional-nums diagonal-fractions;font-feature-settings:normal;text-align:start;writing-mode:lr-tb;text-anchor:start;stroke-width:0.26458332"
         y="279.53473"
         x="260.17529"
         id="tspan2629"
         sodipodi:role="line">b</tspan></text>
    <text
       xml:space="preserve"
       style="font-style:normal;font-variant:normal;font-weight:normal;font-stretch:normal;font-size:8.46666622px;line-height:1.25;font-family:'Times New Roman';-inkscape-font-specification:'Times New Roman, Normal';font-variant-ligatures:normal;font-variant-caps:normal;font-variant-numeric:proportional-nums diagonal-fractions;font-feature-settings:normal;text-align:start;letter-spacing:0px;word-spacing:0px;writing-mode:lr-tb;text-anchor:start;fill:#000000;fill-opacity:1;stroke:none;stroke-width:0.26458332"
       x="264.51843"
       y="281.47244"
       id="text2635"><tspan
         sodipodi:role="line"
         id="tspan2633"
         x="264.51843"
         y="281.47244"
         style="font-style:normal;font-variant:normal;font-weight:normal;font-stretch:normal;font-size:6.3499999px;font-family:'Times New Roman';-inkscape-font-specification:'Times New Roman, Normal';font-variant-ligatures:normal;font-variant-caps:normal;font-variant-numeric:proportional-nums diagonal-fractions;font-feature-settings:normal;text-align:start;writing-mode:lr-tb;text-anchor:start;stroke-width:0.26458332">d</tspan></text>
    <ellipse
       ry="8.3521729"
       rx="1.2695302"
       cy="214.99756"
       cx="295.17657"
       id="ellipse2637"
       style="fill:#000000;fill-opacity:0;stroke:#000000;stroke-width:0.30000001;stroke-miterlimit:4;stroke-dasharray:0.6, 0.3;stroke-dashoffset:0;stroke-opacity:1" />
    <text
       transform="matrix(0.99357306,0.37477243,-0.0151396,1.0007579,0,0)"
       id="text2641"
       y="102.15147"
       x="300.73795"
       style="font-style:normal;font-variant:normal;font-weight:normal;font-stretch:normal;font-size:3.17499995px;line-height:1.25;font-family:'Times New Roman';-inkscape-font-specification:'Times New Roman, Normal';font-variant-ligatures:normal;font-variant-caps:normal;font-variant-numeric:normal;font-feature-settings:normal;text-align:start;letter-spacing:0px;word-spacing:0px;writing-mode:lr-tb;text-anchor:start;fill:#000000;fill-opacity:1;stroke:none;stroke-width:0.21714932"
       xml:space="preserve"><tspan
         style="font-style:normal;font-variant:normal;font-weight:normal;font-stretch:normal;font-size:3.17499995px;font-family:'Times New Roman';-inkscape-font-specification:'Times New Roman, Normal';font-variant-ligatures:normal;font-variant-caps:normal;font-variant-numeric:normal;font-feature-settings:normal;text-align:start;writing-mode:lr-tb;text-anchor:start;stroke-width:0.21714932"
         y="102.15147"
         x="300.73795"
         id="tspan2639"
         sodipodi:role="line">Círculo mínimo</tspan></text>
    <text
       transform="matrix(0.99357306,0.37477243,-0.0151396,1.0007579,0,0)"
       id="text2645"
       y="124.55838"
       x="277.96878"
       style="font-style:normal;font-variant:normal;font-weight:normal;font-stretch:normal;font-size:3.17499995px;line-height:1.25;font-family:'Times New Roman';-inkscape-font-specification:'Times New Roman, Normal';font-variant-ligatures:normal;font-variant-caps:normal;font-variant-numeric:normal;font-feature-settings:normal;text-align:start;letter-spacing:0px;word-spacing:0px;writing-mode:lr-tb;text-anchor:start;fill:#800080;fill-opacity:1;stroke:none;stroke-width:0.21714932"
       xml:space="preserve"><tspan
         style="font-style:normal;font-variant:normal;font-weight:normal;font-stretch:normal;font-size:3.17499995px;font-family:'Times New Roman';-inkscape-font-specification:'Times New Roman, Normal';font-variant-ligatures:normal;font-variant-caps:normal;font-variant-numeric:normal;font-feature-settings:normal;text-align:start;writing-mode:lr-tb;text-anchor:start;fill:#800080;fill-opacity:1;stroke-width:0.21714932"
         y="124.55838"
         x="277.96878"
         id="tspan2643"
         sodipodi:role="line">Círculo de referencia</tspan></text>
    <path
       inkscape:connector-curvature="0"
       id="path2647"
       d="m 304.81224,219.0862 c -0.0945,6.42559 -7.18154,0.94494 -7.18154,0.94494"
       style="fill:none;stroke:#000000;stroke-width:0.26499999;stroke-linecap:butt;stroke-linejoin:miter;stroke-miterlimit:4;stroke-dasharray:none;stroke-opacity:1;marker-end:url(#marker3387)" />
    <path
       sodipodi:nodetypes="cc"
       inkscape:connector-curvature="0"
       id="path2649"
       d="m 286.4804,229.38605 c 0.85045,-4.7247 3.68526,-8.03199 3.68526,-8.03199"
       style="fill:none;stroke:#800080;stroke-width:0.2;stroke-linecap:butt;stroke-linejoin:miter;stroke-miterlimit:4;stroke-dasharray:none;stroke-opacity:1;marker-end:url(#marker3421)" />
    <text
       xml:space="preserve"
       style="font-style:normal;font-variant:normal;font-weight:normal;font-stretch:normal;font-size:8.46666622px;line-height:1.25;font-family:'Times New Roman';-inkscape-font-specification:'Times New Roman, Normal';font-variant-ligatures:normal;font-variant-caps:normal;font-variant-numeric:normal;font-feature-settings:normal;text-align:start;letter-spacing:0px;word-spacing:0px;writing-mode:lr-tb;text-anchor:start;fill:#000000;fill-opacity:1;stroke:none;stroke-width:0.26458332"
       x="203.92426"
       y="182.09145"
       id="text3475"><tspan
         sodipodi:role="line"
         id="tspan3473"
         x="203.92426"
         y="182.09145"
         style="font-style:normal;font-variant:normal;font-weight:normal;font-stretch:normal;font-size:8.46666622px;font-family:'Times New Roman';-inkscape-font-specification:'Times New Roman, Normal';font-variant-ligatures:normal;font-variant-caps:normal;font-variant-numeric:normal;font-feature-settings:normal;text-align:start;writing-mode:lr-tb;text-anchor:start;stroke-width:0.26458332">L</tspan></text>
    <text
       id="text3479"
       y="9.2843542"
       x="65.347397"
       style="font-style:normal;font-variant:normal;font-weight:normal;font-stretch:normal;font-size:8.46666622px;line-height:1.25;font-family:'Times New Roman';-inkscape-font-specification:'Times New Roman, Normal';font-variant-ligatures:normal;font-variant-caps:normal;font-variant-numeric:normal;font-feature-settings:normal;text-align:start;letter-spacing:0px;word-spacing:0px;writing-mode:lr-tb;text-anchor:start;fill:#000000;fill-opacity:1;stroke:none;stroke-width:0.26458332"
       xml:space="preserve"><tspan
         style="font-style:normal;font-variant:normal;font-weight:normal;font-stretch:normal;font-size:8.46666622px;font-family:'Times New Roman';-inkscape-font-specification:'Times New Roman, Normal';font-variant-ligatures:normal;font-variant-caps:normal;font-variant-numeric:normal;font-feature-settings:normal;text-align:start;writing-mode:lr-tb;text-anchor:start;stroke-width:0.26458332"
         y="16.799543"
         x="65.347397"
         id="tspan3477"
         sodipodi:role="line" /></text>
    <text
       id="text3483"
       y="12.224319"
       x="68.153732"
       style="font-style:normal;font-variant:normal;font-weight:normal;font-stretch:normal;font-size:8.46666622px;line-height:1.25;font-family:'Times New Roman';-inkscape-font-specification:'Times New Roman, Normal';font-variant-ligatures:normal;font-variant-caps:normal;font-variant-numeric:normal;font-feature-settings:normal;text-align:start;letter-spacing:0px;word-spacing:0px;writing-mode:lr-tb;text-anchor:start;fill:#000000;fill-opacity:1;stroke:none;stroke-width:0.26458332"
       xml:space="preserve"><tspan
         style="font-style:normal;font-variant:normal;font-weight:normal;font-stretch:normal;font-size:8.46666622px;font-family:'Times New Roman';-inkscape-font-specification:'Times New Roman, Normal';font-variant-ligatures:normal;font-variant-caps:normal;font-variant-numeric:normal;font-feature-settings:normal;text-align:start;writing-mode:lr-tb;text-anchor:start;stroke-width:0.26458332"
         y="19.73951"
         x="68.153732"
         id="tspan3481"
         sodipodi:role="line" /></text>
    <text
       id="text3497"
       y="183.36098"
       x="208.96896"
       style="font-style:normal;font-variant:normal;font-weight:normal;font-stretch:normal;font-size:8.46666622px;line-height:1.25;font-family:'Times New Roman';-inkscape-font-specification:'Times New Roman, Normal';font-variant-ligatures:normal;font-variant-caps:normal;font-variant-numeric:normal;font-feature-settings:normal;text-align:start;letter-spacing:0px;word-spacing:0px;writing-mode:lr-tb;text-anchor:start;fill:#000000;fill-opacity:1;stroke:none;stroke-width:0.26458332"
       xml:space="preserve"><tspan
         style="font-style:normal;font-variant:normal;font-weight:normal;font-stretch:normal;font-size:5.64444447px;font-family:'Times New Roman';-inkscape-font-specification:'Times New Roman, Normal';font-variant-ligatures:normal;font-variant-caps:normal;font-variant-numeric:normal;font-feature-settings:normal;text-align:start;writing-mode:lr-tb;text-anchor:start;stroke-width:0.26458332"
         y="183.36098"
         x="208.96896"
         id="tspan3495"
         sodipodi:role="line">1</tspan></text>
    <text
       id="text3513"
       y="170.99147"
       x="49.172512"
       style="font-style:normal;font-variant:normal;font-weight:normal;font-stretch:normal;font-size:8.46666622px;line-height:1.25;font-family:'Times New Roman';-inkscape-font-specification:'Times New Roman, Normal';font-variant-ligatures:normal;font-variant-caps:normal;font-variant-numeric:normal;font-feature-settings:normal;text-align:start;letter-spacing:0px;word-spacing:0px;writing-mode:lr-tb;text-anchor:start;fill:#000000;fill-opacity:1;stroke:none;stroke-width:0.26458332"
       xml:space="preserve"><tspan
         style="font-style:normal;font-variant:normal;font-weight:normal;font-stretch:normal;font-size:8.46666622px;font-family:'Times New Roman';-inkscape-font-specification:'Times New Roman, Normal';font-variant-ligatures:normal;font-variant-caps:normal;font-variant-numeric:normal;font-feature-settings:normal;text-align:start;writing-mode:lr-tb;text-anchor:start;stroke-width:0.26458332"
         y="170.99147"
         x="49.172512"
         id="tspan3511"
         sodipodi:role="line">L</tspan></text>
    <text
       xml:space="preserve"
       style="font-style:normal;font-variant:normal;font-weight:normal;font-stretch:normal;font-size:8.46666622px;line-height:1.25;font-family:'Times New Roman';-inkscape-font-specification:'Times New Roman, Normal';font-variant-ligatures:normal;font-variant-caps:normal;font-variant-numeric:normal;font-feature-settings:normal;text-align:start;letter-spacing:0px;word-spacing:0px;writing-mode:lr-tb;text-anchor:start;fill:#000000;fill-opacity:1;stroke:none;stroke-width:0.26458332"
       x="54.21722"
       y="172.26099"
       id="text3517"><tspan
         sodipodi:role="line"
         id="tspan3515"
         x="54.21722"
         y="172.26099"
         style="font-style:normal;font-variant:normal;font-weight:normal;font-stretch:normal;font-size:5.64444447px;font-family:'Times New Roman';-inkscape-font-specification:'Times New Roman, Normal';font-variant-ligatures:normal;font-variant-caps:normal;font-variant-numeric:normal;font-feature-settings:normal;text-align:start;writing-mode:lr-tb;text-anchor:start;stroke-width:0.26458332">1</tspan></text>
    <text
       id="text3521"
       y="170.44751"
       x="295.85474"
       style="font-style:normal;font-variant:normal;font-weight:normal;font-stretch:normal;font-size:8.46666622px;line-height:1.25;font-family:'Times New Roman';-inkscape-font-specification:'Times New Roman, Normal';font-variant-ligatures:normal;font-variant-caps:normal;font-variant-numeric:normal;font-feature-settings:normal;text-align:start;letter-spacing:0px;word-spacing:0px;writing-mode:lr-tb;text-anchor:start;fill:#000000;fill-opacity:1;stroke:none;stroke-width:0.26458332"
       xml:space="preserve"><tspan
         style="font-style:normal;font-variant:normal;font-weight:normal;font-stretch:normal;font-size:8.46666622px;font-family:'Times New Roman';-inkscape-font-specification:'Times New Roman, Normal';font-variant-ligatures:normal;font-variant-caps:normal;font-variant-numeric:normal;font-feature-settings:normal;text-align:start;writing-mode:lr-tb;text-anchor:start;stroke-width:0.26458332"
         y="170.44751"
         x="295.85474"
         id="tspan3519"
         sodipodi:role="line">P</tspan></text>
    <text
       xml:space="preserve"
       style="font-style:normal;font-variant:normal;font-weight:normal;font-stretch:normal;font-size:8.46666622px;line-height:1.25;font-family:'Times New Roman';-inkscape-font-specification:'Times New Roman, Normal';font-variant-ligatures:normal;font-variant-caps:normal;font-variant-numeric:normal;font-feature-settings:normal;text-align:start;letter-spacing:0px;word-spacing:0px;writing-mode:lr-tb;text-anchor:start;fill:#000000;fill-opacity:1;stroke:none;stroke-width:0.26458332"
       x="104.44304"
       y="173.35986"
       id="text3525"><tspan
         sodipodi:role="line"
         id="tspan3523"
         x="104.44304"
         y="173.35986"
         style="font-style:normal;font-variant:normal;font-weight:normal;font-stretch:normal;font-size:8.46666622px;font-family:'Times New Roman';-inkscape-font-specification:'Times New Roman, Normal';font-variant-ligatures:normal;font-variant-caps:normal;font-variant-numeric:normal;font-feature-settings:normal;text-align:start;writing-mode:lr-tb;text-anchor:start;stroke-width:0.26458332">P</tspan></text>
    <path
       style="fill:#ffff00;fill-opacity:0.22352941;stroke:#800080;stroke-width:0.10101525;stroke-miterlimit:4;stroke-dasharray:none;stroke-dashoffset:0;stroke-opacity:0"
       d="m 216.01733,258.83616 c 1.38446,-14.4868 1.50163,-29.09528 0.34384,-42.86472 -0.15345,-1.8249 -0.24702,-3.34999 -0.20792,-3.38908 0.0391,-0.0391 12.06618,0.63533 26.72686,1.49871 l 26.65579,1.56979 1.44839,-0.90745 c 0.79661,-0.49909 1.58369,-0.99527 1.74906,-1.10263 l 0.30068,-0.19518 v 8.68793 8.68795 l -1.83748,0.0928 -1.83748,0.0928 -26.25923,14.10462 c -14.44257,7.75754 -26.46438,14.22748 -26.71513,14.37766 l -0.4559,0.27306 z"
       id="path3531"
       inkscape:connector-curvature="0" />
    <path
       style="fill:#ffff00;fill-opacity:0.22352941;stroke:#800080;stroke-width:0.10101525;stroke-miterlimit:4;stroke-dasharray:none;stroke-dashoffset:0;stroke-opacity:0"
       d="m 273.04117,222.14309 0.007,-8.73357 10.17771,-6.37472 c 5.59774,-3.5061 10.20943,-6.34299 10.24821,-6.30422 0.0388,0.0388 -0.0342,0.12911 -0.16225,0.20075 -0.13529,0.0757 -0.23275,0.2878 -0.23275,0.50649 0,0.20694 -0.12912,0.5404 -0.28694,0.74104 -0.16471,0.2094 -0.29985,0.59351 -0.31724,0.90175 -0.0167,0.29533 -0.1086,0.58536 -0.20429,0.64451 -0.0957,0.0591 -0.19025,0.38333 -0.21011,0.72042 -0.0198,0.33709 -0.12629,0.74166 -0.23653,0.89904 -0.11945,0.17053 -0.17092,0.43368 -0.12739,0.6513 0.0402,0.20084 -0.005,0.50781 -0.10071,0.68217 -0.0956,0.17435 -0.18931,0.58761 -0.20833,0.91836 -0.0837,1.45588 -0.16322,2.09715 -0.30507,2.46115 -0.098,0.25144 -0.10522,0.41867 -0.0204,0.4711 0.0843,0.0521 0.0873,0.27201 0.008,0.61244 -0.0678,0.29214 -0.0878,0.8091 -0.0446,1.14881 0.0497,0.39026 0.0239,0.65144 -0.0699,0.70947 -0.19326,0.11944 -0.19309,0.61059 2.2e-4,0.61059 0.14304,0 0.13384,0.11148 -0.10206,1.23612 -0.0476,0.22703 -0.0202,0.3675 0.0717,0.3675 0.19,0 0.19638,0.89731 0.007,0.96049 -0.0987,0.0329 -0.0953,0.1686 0.0112,0.44545 0.0885,0.23003 0.11828,0.66614 0.0705,1.03289 -0.0577,0.44365 -0.0354,0.63477 0.0743,0.63477 0.1104,0 0.13258,0.20493 0.0749,0.69206 -0.0493,0.41627 -0.0253,0.76034 0.0602,0.86337 0.0782,0.0942 0.14565,0.45931 0.14991,0.81132 0.004,0.35202 0.0624,0.67573 0.12913,0.71936 0.0668,0.0436 0.12387,0.40445 0.12691,0.80181 0.003,0.39736 0.0635,0.75836 0.13431,0.80223 0.0708,0.0439 0.14908,0.34454 0.17387,0.66817 0.0248,0.32363 0.14558,0.78343 0.26841,1.02178 0.12283,0.23834 0.18703,0.54772 0.14267,0.6875 -0.0464,0.14623 0.006,0.34097 0.12381,0.45861 0.26848,0.26848 0.48292,0.84447 0.39739,1.06736 -0.0373,0.0973 0.0846,0.34146 0.27102,0.54258 0.18639,0.20113 0.34584,0.43776 0.35432,0.52584 0.008,0.0881 0.0235,0.22206 0.0334,0.29772 0.01,0.0757 0.2435,0.3633 0.51912,0.63922 0.27562,0.27592 0.50113,0.5836 0.50113,0.68375 0,0.22778 -0.64506,0.28067 -6.61492,0.54237 -2.49897,0.10954 -4.8593,0.22555 -5.24516,0.25778 l -0.70159,0.0586 v -0.52488 c 10e-6,-0.42706 -0.0474,-0.52489 -0.25454,-0.52489 -0.21984,0 -0.24478,0.0729 -0.18286,0.53454 0.0583,0.43452 0.0309,0.53454 -0.14635,0.53454 -0.12643,0 -0.21805,-0.10852 -0.21805,-0.25826 0,-0.25075 -0.47304,-0.51596 -0.6337,-0.3553 -0.0435,0.0435 -0.009,0.079 0.0769,0.079 0.0857,0 0.15591,0.12027 0.15591,0.26727 0,0.17818 -0.0891,0.26727 -0.26727,0.26727 -0.21461,0 -0.26728,-0.0891 -0.26728,-0.45214 0,-0.33974 -0.0664,-0.4695 -0.26726,-0.52202 -0.147,-0.0385 -0.26727,-0.0154 -0.26727,0.0512 0,0.0666 -0.12027,7.9e-4 -0.26727,-0.14615 -0.67615,-0.67615 -1.43021,0.0931 -0.87221,0.88978 0.19649,0.28053 0.19324,0.28125 -1.63702,0.36612 -1.00865,0.0468 -2.29995,0.12034 -2.86957,0.16347 l -1.03567,0.0784 z m 4.96407,8.01086 c -0.0882,-0.0882 -0.16036,-0.36286 -0.16036,-0.61036 0,-0.39577 0.0337,-0.43931 0.27955,-0.36127 0.22334,0.0709 0.26934,0.0391 0.22874,-0.15804 -0.0279,-0.13572 -0.15374,-0.23841 -0.27955,-0.2282 -0.12581,0.0102 -0.22874,-0.0349 -0.22874,-0.10023 0,-0.0653 -0.11144,-0.11879 -0.24765,-0.11879 -0.21678,0 -0.23962,0.0836 -0.18322,0.6706 0.0557,0.57955 0.0349,0.65925 -0.15325,0.58706 -0.16392,-0.0629 -0.21769,-0.26153 -0.21769,-0.80423 0,-0.59744 -0.04,-0.72063 -0.23386,-0.7203 -0.19329,2.7e-4 -0.23386,0.1234 -0.23386,0.70951 v 0.70912 l 0.66817,0.2764 c 0.79536,0.32902 0.97759,0.3646 0.76172,0.14873 z m -1.76398,-0.97553 c 0.1907,-0.22977 -0.005,-0.27559 -0.2274,-0.0532 -0.25226,0.25226 -0.88799,-0.15397 -1.05714,-0.6755 -0.18043,-0.55634 -0.0508,-1.12578 0.27041,-1.18766 0.26496,-0.0511 0.8805,0.46415 0.8805,0.73697 0,0.0974 0.0666,0.17716 0.14793,0.17716 0.0814,0 0.11143,-0.0951 0.0668,-0.21138 -0.0446,-0.11626 -0.0811,-0.28754 -0.0811,-0.38061 0,-0.0931 -0.24111,-0.27796 -0.53581,-0.41085 -0.42879,-0.19335 -0.60155,-0.21166 -0.86494,-0.0916 -0.63407,0.2889 -0.60348,1.24897 0.061,1.91342 0.42747,0.42748 1.06478,0.51468 1.33978,0.18333 z m 10.67597,-0.96711 c 0.58784,-2.32153 2.6942,-6.44025 3.24605,-6.34724 0.20604,0.0347 0.37122,-0.31649 0.37508,-0.79751 0.002,-0.20544 -0.0401,-0.20955 -0.43249,-0.0425 -0.2525,0.10749 -0.41906,0.26747 -0.39787,0.38216 0.0201,0.1085 -0.32351,0.75389 -0.76346,1.43419 -0.93198,1.44115 -1.72232,3.17949 -2.20487,4.84959 -0.35721,1.23631 -0.41888,1.68889 -0.23012,1.68889 0.0616,0 0.24507,-0.5254 0.40768,-1.16756 z m -9.90088,-0.19551 c 0.21825,-0.21826 0.20154,-0.37418 -0.0401,-0.37418 -0.11025,0 -0.20046,0.0252 -0.20046,0.0559 0,0.0307 -0.0365,0.15101 -0.0811,0.26727 -0.0957,0.2494 0.0933,0.27938 0.32166,0.051 z"
       id="path3533"
       inkscape:connector-curvature="0" />
    <path
       inkscape:connector-curvature="0"
       id="path2627-7"
       d="m 216.9242,239.02075 52.15811,-14.87794 -21.06086,6.00754"
       style="fill:#000000;stroke:#000000;stroke-width:0.3843407;stroke-linecap:butt;stroke-linejoin:miter;stroke-miterlimit:4;stroke-dasharray:0, 0.38434071, 0.76868139, 1.1530221, 1.53736281, 1.92170349, 2.30604419, 2.69038489, 3.07472559, 3.4590663, 3.84340699, 4.22774769, 4.6120884, 4.99642908, 5.38076979;stroke-dashoffset:0;stroke-opacity:1" />
    <text
       id="text2631-3"
       y="225.40125"
       x="239.64587"
       style="font-style:normal;font-variant:normal;font-weight:normal;font-stretch:normal;font-size:8.46666622px;line-height:1.25;font-family:'Times New Roman';-inkscape-font-specification:'Times New Roman, Normal';font-variant-ligatures:normal;font-variant-caps:normal;font-variant-numeric:proportional-nums diagonal-fractions;font-feature-settings:normal;text-align:start;letter-spacing:0px;word-spacing:0px;writing-mode:lr-tb;text-anchor:start;fill:#000000;fill-opacity:1;stroke:none;stroke-width:0.26458332"
       xml:space="preserve"><tspan
         style="font-style:normal;font-variant:normal;font-weight:normal;font-stretch:normal;font-size:8.46666622px;font-family:'Times New Roman';-inkscape-font-specification:'Times New Roman, Normal';font-variant-ligatures:normal;font-variant-caps:normal;font-variant-numeric:proportional-nums diagonal-fractions;font-feature-settings:normal;text-align:start;writing-mode:lr-tb;text-anchor:start;stroke-width:0.26458332"
         y="225.40125"
         x="239.64587"
         id="tspan2629-2"
         sodipodi:role="line">f</tspan></text>
    <text
       xml:space="preserve"
       style="font-style:normal;font-variant:normal;font-weight:normal;font-stretch:normal;font-size:8.46666622px;line-height:1.25;font-family:'Times New Roman';-inkscape-font-specification:'Times New Roman, Normal';font-variant-ligatures:normal;font-variant-caps:normal;font-variant-numeric:proportional-nums diagonal-fractions;font-feature-settings:normal;text-align:start;letter-spacing:0px;word-spacing:0px;writing-mode:lr-tb;text-anchor:start;fill:#000000;fill-opacity:1;stroke:none;stroke-width:0.26458332"
       x="242.40152"
       y="230.51396"
       id="text2635-4"><tspan
         sodipodi:role="line"
         id="tspan2633-7"
         x="242.40152"
         y="230.51396"
         style="font-style:normal;font-variant:normal;font-weight:normal;font-stretch:normal;font-size:9.87777805px;font-family:'Times New Roman';-inkscape-font-specification:'Times New Roman, Normal';font-variant-ligatures:normal;font-variant-caps:normal;font-variant-numeric:proportional-nums diagonal-fractions;font-feature-settings:normal;text-align:start;writing-mode:lr-tb;text-anchor:start;stroke-width:0.26458332">1</tspan></text>
  </g>
</svg>
